<?xml version="1.0" standalone="no"?>
<!DOCTYPE svg PUBLIC "-//W3C//DTD SVG 20010904//EN"
 "http://www.w3.org/TR/2001/REC-SVG-20010904/DTD/svg10.dtd">
<svg version="1.0" xmlns="http://www.w3.org/2000/svg"
 width="1280.000000pt" height="1220.000000pt" viewBox="0 0 1280.000000 1220.000000"
 preserveAspectRatio="xMidYMid meet">
<g transform="translate(0.000000,1220.000000) scale(0.100000,-0.100000)"
fill="#000000" stroke="none">
<path d="M12527 12170 c-86 -35 -100 -47 -538 -422 -1859 -1592 -2928 -2626
-3860 -3734 -591 -703 -1130 -1468 -1525 -2169 -234 -414 -363 -672 -584
-1170 -209 -470 -359 -859 -585 -1508 -26 -75 -53 -137 -59 -137 -7 0 -53 51
-103 113 -311 385 -723 754 -1208 1083 -292 198 -514 327 -900 525 -479 245
-825 398 -1655 734 -173 70 -490 198 -705 285 -214 87 -419 166 -455 175 -86
23 -205 24 -246 2 -45 -23 -79 -67 -94 -122 -12 -43 -11 -56 9 -133 45 -172
129 -310 266 -440 69 -65 105 -89 232 -155 877 -454 1701 -1037 2573 -1821
217 -195 871 -852 1081 -1086 574 -639 1052 -1253 1487 -1910 85 -129 159
-239 163 -243 4 -5 17 35 29 90 545 2468 1751 4907 3819 7718 686 933 1406
1841 2676 3375 424 513 393 468 434 622 25 93 26 114 6 181 -23 79 -55 127
-103 153 -53 30 -71 29 -155 -6z"/>
</g>
</svg>
